# xmcd
#
# Track frame offsets:
#	150
#	16721
#	30880
#	49731
#	67697
#	84597
#	101727
#	122089
#	137308
#	156371
#
# Disc length: 2338 seconds
#
# Revision: 1
# Processed by: cddbd v1.5.2PL0 Copyright (c) Steve Scherf et al.
# Submitted via: audiograbber 1.83.01
#
DISCID=6c09200a
DTITLE=5 Th Avenue Band - 10 Big Hits
DYEAR=1900
DGENRE=pop
TTITLE0=5 Th Avenue Band - Objection
TTITLE1=5 Th Avenue Band - I wish
TTITLE2=5 Th Avenue Band - Leun op mij
TTITLE3=5 Th Avenue Band - beast of burden
TTITLE4=5 Th Avenue Band - Girl
TTITLE5=5 Th Avenue Band - Demasiado corazon
TTITLE6=5 Th Avenue Band - One
TTITLE7=5 Th Avenue Band - Crawling up A hill
TTITLE8=5 Th Avenue Band - I'm outta love
TTITLE9=5 Th Avenue Band - The best
EXTD=
EXTT0=
EXTT1=
EXTT2=
EXTT3=
EXTT4=
EXTT5=
EXTT6=
EXTT7=
EXTT8=
EXTT9=
PLAYORDER=
